<mxfile host="app.diagrams.net" modified="2020-11-13T10:23:10.848Z" agent="5.0 (Windows NT 10.0; Win64; x64) AppleWebKit/537.36 (KHTML, like Gecko) Chrome/86.0.4240.183 Safari/537.36" etag="RB9TUsF5l3BXtJzS9XWe" version="13.9.2" type="github">
  <diagram id="4K1lBhTVDv3SQonV1UwC" name="第 1 页">
    <mxGraphModel dx="2062" dy="794" grid="1" gridSize="10" guides="1" tooltips="1" connect="1" arrows="1" fold="1" page="1" pageScale="1" pageWidth="827" pageHeight="1169" math="0" shadow="0">
      <root>
        <mxCell id="0" />
        <mxCell id="1" parent="0" />
        <mxCell id="a5MUbs7jFEjnXz2IgRiw-1" value="Actor" style="shape=umlActor;verticalLabelPosition=bottom;verticalAlign=top;html=1;outlineConnect=0;" vertex="1" parent="1">
          <mxGeometry x="80" y="150" width="30" height="60" as="geometry" />
        </mxCell>
        <mxCell id="a5MUbs7jFEjnXz2IgRiw-3" value="" style="html=1;dashed=0;whitespace=wrap;fillColor=#2875E2;strokeColor=#ffffff;points=[[0.005,0.63,0],[0.1,0.2,0],[0.9,0.2,0],[0.5,0,0],[0.995,0.63,0],[0.72,0.99,0],[0.5,1,0],[0.28,0.99,0]];shape=mxgraph.kubernetes.icon;prIcon=master" vertex="1" parent="1">
          <mxGeometry x="730" y="78" width="50" height="48" as="geometry" />
        </mxCell>
        <mxCell id="a5MUbs7jFEjnXz2IgRiw-4" value="" style="html=1;dashed=0;whitespace=wrap;fillColor=#2875E2;strokeColor=#ffffff;points=[[0.005,0.63,0],[0.1,0.2,0],[0.9,0.2,0],[0.5,0,0],[0.995,0.63,0],[0.72,0.99,0],[0.5,1,0],[0.28,0.99,0]];shape=mxgraph.kubernetes.icon;prIcon=etcd" vertex="1" parent="1">
          <mxGeometry x="660" y="30" width="50" height="48" as="geometry" />
        </mxCell>
        <mxCell id="a5MUbs7jFEjnXz2IgRiw-5" value="yaml" style="whiteSpace=wrap;html=1;shape=mxgraph.basic.document" vertex="1" parent="1">
          <mxGeometry x="210" y="30" width="100" height="60" as="geometry" />
        </mxCell>
      </root>
    </mxGraphModel>
  </diagram>
</mxfile>
